/* XPM */
static char * swarm_xpm[] = {
"45 46 47 1",
" 	c None",
".	c #FFFFFF",
"+	c #555555",
"@	c #000000",
"#	c #999999",
"$	c #CCCCCC",
"%	c #EEEEEE",
"&	c #888888",
"*	c #111111",
"=	c #AAAAAA",
"-	c #DDDDDD",
";	c #666666",
">	c #BBBBBB",
",	c #993333",
"'	c #FF6633",
")	c #CC0033",
"!	c #990033",
"~	c #440000",
"{	c #110000",
"]	c #333333",
"^	c #CC0066",
"/	c #663300",
"(	c #444444",
"_	c #220000",
":	c #777777",
"<	c #222222",
"[	c #CC6633",
"}	c #003333",
"|	c #004400",
"1	c #009933",
"2	c #660033",
"3	c #BB0000",
"4	c #006633",
"5	c #669966",
"6	c #336633",
"7	c #660000",
"8	c #663333",
"9	c #880000",
"0	c #AA0000",
"a	c #CC3333",
"b	c #550000",
"c	c #CCCC00",
"d	c #FFCC00",
"e	c #330000",
"f	c #999933",
"g	c #FFFF00",
"h	c #999900",
".............................................",
".............................................",
".............................................",
".................+@@#$%%$&*@&................",
"..............$@#......%.....=@..............",
".............@-........%....-..&@............",
"...........@.=....$%......%-....=.@..........",
"..........*-.$..$......;.....$%>..$@.........",
".........@....$........>.......>....@........",
".......%&...-........,''.$....@..$...#.......",
".......@...$........)!''$.....$...$...@......",
"......@...$.......;~)){]....-.)^#..-..%*.....",
".....%...-.......%''/~.......#)@^{..-...$....",
".....@#...........,'(.........+^)@_..%%=@....",
"....#%.--...+##(-..%..........._!'':.%%..:...",
"....<..-..%$%...-$...............['>.....+...",
"...#...%.(-.$}|-.$%.....$(........-...$......",
"...*.%%.#%...->;..-:....''~!&+%.........%.-..",
"...(..-.%%...1<.........''~)2)3........-..@..",
"...=......-4..56.%.%....=<*!7)7........-..@..",
"...%....%.66.....1%-.........##........%..]..",
"..........4>-.$..6.................%......&..",
"...%--..:-.#...-=.%$......*........>..@.--&..",
"........%..>.......;....~)]........<)7....#..",
"...--......$.#..%.&.>~~'8)!:.......90)...-+..",
"...-......=-.%%.%%..'''',);........''@.%..@..",
"...#-.%.....-==>....a''~$.........%''~.$.-@..",
"...@..$..............-..-&=......._)!..%..+..",
"...]%-........@........;.%%%&.....!)).%.%%%..",
"...%$..-...$.:@.......%-.....+....-b&.$..%...",
"....@>.......)){.....;-.=.cd..-.........$@...",
"....%#.=$....^e2$......f.....-+......$=.>-...",
".....@>..%...<))e....%.c.....-:........=@....",
"......>-......!''....%..g..h&.;....%...*.....",
"......@...-...+''&...(-.h##$%%........==.....",
".......@-..%...,'.....>%.-.-.#....%..-(......",
"........@.%..-.........>%..]....$..$.@.......",
".........<....>%...............=...%*........",
"..........@$.=..%%..........--.%-.-;.........",
"............@..-....%--$-%....%.>@%..........",
".............+@........%....%..@=............",
"...............+@%.....%....>@(..............",
"...................%+<@@<:%..................",
".............................................",
".............................................",
"............................................."};
