/* XPM */
static char * ant8_xpm[] = {
"8 8 3 1",
"       c black",
".	c grey75",
"x      c red",   
"      x ",
"    x . ",
"     .. ",
"      ..",
" .......",
". . .   ",
". . .   ",
". . .   "};
